<svg version="1.1" xmlns="http://www.w3.org/2000/svg" viewBox="-2302.8143857453997 -1732.3520385742188 7335.774586245888 2932.2240966796876"><desc>Created with Snap</desc><defs></defs><g><g transform="matrix(121.9907,0,0,121.9907,-2605.5681,-1669.1336)"><title>Shopping bag Money wallet finance banking </title><g data-name="Layer 3"><path d="M18,21H6a1,1,0,0,1-1-1V8A1,1,0,0,1,6,7H18a1,1,0,0,1,1,1V20A1,1,0,0,1,18,21ZM7,19H17V9H7Z" fill="#00e6cf" style=""></path><path d="M14.5,11a1,1,0,0,1-1-1V5.5a1.5,1.5,0,0,0-3,0V10a1,1,0,0,1-2,0V5.5a3.5,3.5,0,0,1,7,0V10A1,1,0,0,1,14.5,11Z" fill="#00e6cf" style=""></path></g><desc>Created with Snap</desc><defs></defs></g><g><g transform="matrix(1.024,0,0,-1.024,0,0)"><path d="M237 522Q258 522 290 518Q322 515 351 505Q380 496 401 479Q422 462 422 436Q422 421 413 410Q405 399 387 399Q374 399 357 403Q341 407 321 412Q302 418 279 422Q257 426 232 426Q190 426 163 413Q137 400 137 372Q137 356 146 345Q156 334 172 325Q189 317 211 311Q234 305 259 299Q290 291 320 281Q351 271 375 253Q399 236 414 209Q429 183 429 144Q429 70 373 26Q317 -17 208 -17Q184 -17 151 -14Q118 -10 89 -1Q60 9 39 26Q19 44 19 73Q19 93 28 103Q38 114 52 114Q63 114 75 107Q87 100 104 92Q121 84 145 77Q169 70 204 70Q217 70 238 71Q259 73 279 80Q300 87 314 99Q329 112 329 135Q329 153 319 165Q309 178 292 187Q275 196 252 202Q230 209 205 216Q176 224 146 234Q117 244 93 260Q69 276 54 300Q39 325 39 361Q39 395 53 424Q67 454 93 476Q119 498 155 510Q192 522 237 522ZM755 411Q718 411 688 400Q659 389 622 370Q622 369 622 351Q622 333 621 305Q621 277 620 242Q620 208 619 173Q619 139 617 108Q616 77 615 56Q613 35 610 23Q608 11 604 5Q601 0 595 -1Q589 -2 582 -2Q565 -2 555 -1Q546 1 540 6Q534 12 531 23Q529 34 527 53Q525 72 523 105Q522 139 521 180Q520 222 519 269Q519 316 519 362Q519 408 519 459Q520 511 521 558Q522 606 523 643Q524 681 526 699Q528 725 535 744Q543 763 569 763Q589 763 601 749Q614 735 616 696Q618 661 619 598Q621 536 622 458Q636 469 656 478Q676 488 698 494Q720 501 743 505Q766 509 786 509Q834 509 869 486Q905 464 926 422Q940 395 947 362Q954 330 957 294Q958 278 959 262Q960 247 960 229Q961 212 961 190Q961 168 961 138Q961 108 960 82Q959 57 954 38Q950 20 940 9Q930 -1 912 -1Q886 -1 873 15Q861 32 861 55Q861 56 861 76Q861 96 860 122Q860 149 859 176Q859 203 858 220Q857 236 855 254Q854 273 851 292Q849 311 845 328Q841 346 835 360Q821 393 800 402Q779 411 755 411ZM1307 507Q1364 507 1409 489Q1454 472 1485 440Q1517 408 1534 362Q1551 316 1551 259Q1551 196 1531 146Q1512 96 1477 61Q1443 26 1395 7Q1348 -12 1292 -12Q1231 -12 1184 9Q1138 30 1106 66Q1075 102 1059 149Q1043 196 1043 248Q1043 305 1061 352Q1080 400 1114 434Q1149 469 1198 488Q1247 507 1307 507ZM1296 80Q1337 80 1366 94Q1395 109 1413 133Q1432 157 1440 187Q1449 218 1449 251Q1449 285 1440 314Q1432 344 1414 366Q1397 388 1369 400Q1342 413 1304 413Q1265 413 1236 400Q1207 387 1187 364Q1168 342 1158 311Q1148 280 1148 244Q1148 171 1185 125Q1223 80 1296 80ZM1749 -144Q1749 -163 1748 -181Q1747 -198 1741 -212Q1736 -226 1725 -235Q1715 -243 1696 -243Q1674 -243 1659 -228Q1645 -212 1643 -173Q1642 -148 1640 -112Q1638 -76 1636 -36Q1635 4 1633 44Q1632 84 1632 118Q1632 235 1648 311Q1665 387 1698 432Q1731 477 1779 495Q1828 513 1892 513Q1943 513 1988 497Q2033 482 2066 449Q2100 417 2120 365Q2140 314 2140 242Q2140 182 2119 136Q2099 90 2063 58Q2027 27 1978 10Q1930 -6 1875 -6Q1828 -6 1790 13Q1753 33 1737 56Q1742 0 1745 -48Q1749 -96 1749 -144ZM1887 413Q1852 413 1826 401Q1801 389 1785 368Q1769 347 1761 318Q1754 289 1754 255Q1754 222 1760 192Q1767 163 1782 141Q1797 119 1822 106Q1847 93 1883 93Q1911 93 1937 100Q1963 108 1983 126Q2004 144 2016 174Q2029 204 2029 249Q2029 295 2016 326Q2004 358 1983 377Q1963 397 1937 405Q1912 413 1887 413ZM2338 -144Q2338 -163 2337 -181Q2336 -198 2330 -212Q2325 -226 2314 -235Q2304 -243 2285 -243Q2263 -243 2248 -228Q2234 -212 2232 -173Q2231 -148 2229 -112Q2227 -76 2225 -36Q2224 4 2222 44Q2221 84 2221 118Q2221 235 2237 311Q2254 387 2287 432Q2320 477 2368 495Q2417 513 2481 513Q2532 513 2577 497Q2622 482 2655 449Q2689 417 2709 365Q2729 314 2729 242Q2729 182 2708 136Q2688 90 2652 58Q2616 27 2567 10Q2519 -6 2464 -6Q2417 -6 2379 13Q2342 33 2326 56Q2331 0 2334 -48Q2338 -96 2338 -144ZM2476 413Q2441 413 2415 401Q2390 389 2374 368Q2358 347 2350 318Q2343 289 2343 255Q2343 222 2349 192Q2356 163 2371 141Q2386 119 2411 106Q2436 93 2472 93Q2500 93 2526 100Q2552 108 2572 126Q2593 144 2605 174Q2618 204 2618 249Q2618 295 2605 326Q2593 358 2572 377Q2552 397 2526 405Q2501 413 2476 413ZM2825 62Q2823 99 2821 146Q2820 194 2820 251Q2820 322 2821 372Q2822 423 2826 455Q2831 488 2841 503Q2851 519 2869 519Q2886 519 2899 507Q2912 495 2914 455Q2920 350 2920 252Q2920 202 2918 158Q2916 115 2914 63Q2913 39 2909 26Q2906 13 2900 6Q2894 -1 2886 -3Q2879 -4 2869 -4Q2851 -4 2839 8Q2827 21 2825 62ZM2870 700Q2893 700 2912 682Q2932 664 2932 639Q2932 615 2912 597Q2892 580 2867 580Q2846 580 2827 597Q2809 615 2809 641Q2809 665 2827 682Q2846 700 2870 700ZM3279 426Q3242 426 3212 414Q3183 402 3146 378Q3146 357 3146 316Q3146 276 3145 228Q3144 181 3143 135Q3142 89 3139 58Q3137 38 3134 26Q3132 15 3127 9Q3123 3 3115 1Q3108 0 3096 0Q3084 0 3076 1Q3069 3 3064 8Q3059 14 3056 25Q3053 36 3051 55Q3049 73 3047 103Q3046 133 3045 168Q3044 204 3043 240Q3043 277 3043 308Q3043 359 3044 391Q3046 423 3050 448Q3056 490 3066 501Q3076 512 3093 512Q3118 512 3130 498Q3143 484 3146 452Q3183 484 3225 503Q3268 522 3313 522Q3356 522 3391 502Q3427 482 3450 437Q3464 410 3471 377Q3478 345 3481 309Q3482 293 3483 277Q3484 262 3484 244Q3485 227 3485 205Q3485 183 3485 153Q3485 121 3484 93Q3483 65 3478 44Q3474 24 3463 12Q3452 1 3433 1Q3387 1 3385 45Q3385 48 3385 70Q3385 93 3384 123Q3384 153 3383 184Q3383 215 3382 235Q3381 251 3379 269Q3378 288 3375 307Q3373 326 3369 343Q3365 361 3359 375Q3345 408 3324 417Q3303 426 3279 426ZM3798 -137Q3845 -137 3877 -119Q3910 -100 3930 -66Q3950 -31 3958 17Q3967 66 3967 127Q3958 95 3941 73Q3924 51 3901 37Q3879 24 3851 18Q3823 12 3793 12Q3747 12 3706 25Q3665 38 3634 66Q3604 94 3586 137Q3568 181 3568 242Q3568 301 3585 350Q3603 400 3636 436Q3670 472 3718 492Q3766 512 3828 512Q3861 512 3886 506Q3912 500 3932 490Q3952 480 3967 466Q3983 452 3996 436Q4034 388 4051 322Q4068 257 4068 165Q4068 97 4056 26Q4045 -45 4015 -103Q3985 -160 3932 -197Q3879 -233 3796 -233Q3781 -233 3762 -232Q3744 -230 3724 -227Q3705 -224 3686 -219Q3667 -213 3651 -204Q3631 -193 3619 -183Q3607 -173 3607 -150Q3607 -131 3615 -116Q3624 -100 3645 -100Q3655 -100 3667 -106Q3679 -112 3696 -119Q3714 -125 3738 -131Q3763 -137 3798 -137ZM3803 103Q3842 103 3869 117Q3897 132 3914 156Q3932 180 3940 210Q3949 240 3949 270Q3949 295 3942 320Q3936 346 3921 367Q3906 388 3880 401Q3854 414 3815 414Q3749 414 3708 374Q3668 334 3668 256Q3668 183 3704 143Q3740 103 3803 103ZM4569 -4Q4553 -4 4543 1Q4534 7 4529 16Q4524 25 4522 37Q4520 50 4519 64Q4494 33 4454 12Q4415 -9 4354 -9Q4315 -9 4274 2Q4234 14 4201 42Q4168 71 4147 119Q4126 167 4126 240Q4126 297 4140 347Q4154 397 4182 434Q4211 472 4254 494Q4297 516 4355 516Q4406 516 4446 497Q4486 479 4518 437Q4518 449 4519 461Q4520 474 4524 484Q4529 495 4539 501Q4549 508 4566 508Q4581 508 4594 496Q4607 484 4609 444Q4612 391 4613 349Q4615 307 4615 262Q4615 207 4614 161Q4613 115 4609 63Q4607 40 4603 26Q4600 13 4595 6Q4590 0 4583 -2Q4576 -4 4569 -4ZM4515 250Q4515 302 4499 335Q4484 368 4460 386Q4437 405 4410 412Q4383 419 4360 419Q4324 419 4298 406Q4273 393 4257 370Q4241 348 4233 317Q4226 287 4226 251Q4226 163 4264 121Q4303 79 4369 79Q4408 79 4435 92Q4463 106 4480 129Q4498 152 4506 183Q4515 215 4515 250Z" fill="#165a3f" style=""></path></g></g></g></svg>